<svg width="400" height="224" viewBox="0 0 400 224" xmlns="http://www.w3.org/2000/svg" xmlns:xlink="http://www.w3.org/1999/xlink"><title>vector-network</title><defs><path id="a" d="M0 22.609V.263h122.05V22.61H0z"/><path id="c" d="M122.843 22.609H.793V.263h122.05z"/></defs><g fill="none" fill-rule="evenodd"><path d="M212.82 22.318c-3.192-3.558-7.82-5.802-12.964-5.802-5.143 0-9.772 2.244-12.962 5.802l-2.06-2.083c3.723-4.079 9.078-6.642 15.022-6.642 5.945 0 11.3 2.563 15.022 6.642l-2.059 2.083zm-4.385 4.43a11.17 11.17 0 0 0-17.158 0l-2.061-2.084c2.59-2.971 6.398-4.854 10.64-4.854 4.243 0 8.051 1.883 10.642 4.854l-2.063 2.085zm-4.446 4.498a4.928 4.928 0 0 0-4.133-2.25c-1.729 0-3.25.898-4.131 2.25l-2.082-2.105a7.838 7.838 0 0 1 6.213-3.068 7.84 7.84 0 0 1 6.214 3.068l-2.081 2.105zm-4.133 4.177l-2.037-2.06a2.18 2.18 0 0 1 2.037-1.419c.934 0 1.727.593 2.038 1.418l-2.038 2.061zm0-35.422c-13.105 0-23.728 10.623-23.728 23.729 0 13.105 10.623 23.73 23.728 23.73 13.106 0 23.73-10.625 23.73-23.73 0-13.106-10.624-23.73-23.73-23.73zm-99.435 167.453c0 .801-.646 1.447-1.447 1.447H23.076a1.442 1.442 0 0 1-1.433-1.447v-41.782a1.43 1.43 0 0 1 1.433-1.433h75.898c.801 0 1.447.632 1.447 1.433v41.782zm3.118-46.573H18.512a.942.942 0 0 0-.941.941v49.48c0 .52.42.942.94.942h85.028c.52 0 .955-.421.955-.941v-49.48a.954.954 0 0 0-.955-.942z" fill="#05C371"/><g transform="translate(0 176.77)"><mask id="b" fill="#fff"><use xlink:href="#a"/></mask><path d="M122.05 18.648v2.893c0 .59-.464 1.068-1.053 1.068H1.067A1.067 1.067 0 0 1 0 21.54v-2.893c0-.267.099-.506.266-.703L15.547.755c.267-.31.66-.492 1.068-.492h88.835c.407 0 .785.182 1.067.492l15.267 17.19a1 1 0 0 1 .266.703" fill="#05C371" mask="url(#b)"/></g><path d="M239.246 191.253c0 .8-.647 1.447-1.447 1.447H161.9a1.442 1.442 0 0 1-1.433-1.447V149.47c0-.8.646-1.433 1.433-1.433h75.898c.8 0 1.447.632 1.447 1.433v41.783zm3.117-46.574h-85.027a.942.942 0 0 0-.941.942v49.48c0 .52.421.941.941.941h85.027c.52 0 .956-.42.956-.94V145.62a.954.954 0 0 0-.956-.942z" fill="#05C371"/><g transform="translate(138.031 200.569)"><mask id="d" fill="#fff"><use xlink:href="#c"/></mask><path d="M122.843 18.648v2.893c0 .59-.463 1.068-1.053 1.068H1.86A1.067 1.067 0 0 1 .793 21.54v-2.893c0-.267.099-.506.267-.703L16.34.755a1.42 1.42 0 0 1 1.07-.492h88.834c.407 0 .786.182 1.067.492l15.267 17.19a1 1 0 0 1 .266.703" fill="#05C371" mask="url(#d)"/></g><path d="M378.07 167.454c0 .801-.647 1.447-1.447 1.447h-75.898a1.442 1.442 0 0 1-1.433-1.447v-41.782a1.43 1.43 0 0 1 1.433-1.433h75.898c.8 0 1.447.632 1.447 1.433v41.782zm3.117-46.573H296.16a.942.942 0 0 0-.941.941v49.48c0 .52.421.942.941.942h85.027a.953.953 0 0 0 .956-.941v-49.48a.953.953 0 0 0-.956-.942zm18.511 74.537v2.894c0 .59-.464 1.067-1.053 1.067h-119.93a1.067 1.067 0 0 1-1.067-1.067v-2.894c0-.267.099-.506.268-.702l15.28-17.191c.267-.31.66-.492 1.068-.492h88.834c.408 0 .786.182 1.067.492l15.267 17.19a.995.995 0 0 1 .266.703" fill="#05C371"/><path d="M331.506 84.098l-129.27-32.131v-7.46h-4.76v7.46L68.208 84.098a12.574 12.574 0 0 0-9.556 12.222v20.574h4.76V96.32a7.82 7.82 0 0 1 5.943-7.601L197.476 56.87v81.442h4.76V56.87l128.121 31.85a7.817 7.817 0 0 1 5.944 7.601v20.574h4.76V96.32a12.572 12.572 0 0 0-9.555-12.222" fill="#05C371"/></g></svg>